<?xml version="1.0" encoding="windows-1252"?>
<!-- Generator: Adobe Illustrator 19.0.0, SVG Export Plug-In . SVG Version: 6.00 Build 0)  -->
<svg version="1.1" id="Layer_1" xmlns="http://www.w3.org/2000/svg" xmlns:xlink="http://www.w3.org/1999/xlink" x="0px" y="0px" viewBox="0 0 511.999 511.999" style="enable-background:new 0 0 511.999 511.999;" xml:space="preserve">
<g>
	<g>
		<path fill="#006cb5" d="M427.058,354.419h36.133c6.265,0,11.343-5.078,11.343-11.343s-5.078-11.343-11.343-11.343h-49.003l-63.049-111.132    c6.305-13.476,9.835-28.498,9.835-44.333c0-40.743-23.332-76.137-57.335-93.526V11.343C303.639,5.078,298.561,0,292.296,0h-72.593    c-6.265,0-11.343,5.078-11.343,11.343v71.399c-34.003,17.39-57.335,52.784-57.335,93.526c0,15.834,3.531,30.858,9.835,44.333    L97.813,331.733H48.808c-6.265,0-11.343,5.078-11.343,11.343s5.078,11.343,11.343,11.343h36.133L42.24,429.686    c-1.235,2.177-1.715,4.701-1.367,7.179l9.208,65.374c0.491,3.487,2.573,6.546,5.635,8.284c1.729,0.981,3.66,1.477,5.598,1.477    c1.494,0,2.991-0.295,4.403-0.89l60.841-25.634c2.306-0.971,4.226-2.679,5.461-4.856l71.599-126.202h104.765l71.599,126.202    c1.235,2.177,3.156,3.884,5.461,4.856l60.841,25.634c1.412,0.596,2.909,0.89,4.403,0.89c1.937,0,3.869-0.497,5.598-1.477    c3.063-1.738,5.144-4.797,5.635-8.284l9.208-65.374c0.349-2.478-0.132-5.002-1.367-7.179L427.058,354.419z M231.046,22.685h49.907    v51.592c-3.726-0.911-7.503-1.604-11.319-2.097c-0.12-0.016-0.24-0.034-0.361-0.049c-0.648-0.082-1.296-0.153-1.946-0.223    c-0.339-0.036-0.678-0.073-1.019-0.107c-0.556-0.054-1.114-0.103-1.671-0.149c-0.456-0.037-0.913-0.07-1.371-0.102    c-0.48-0.033-0.961-0.066-1.442-0.092c-0.584-0.032-1.172-0.056-1.758-0.078c-0.375-0.015-0.751-0.033-1.127-0.043    c-0.977-0.027-1.957-0.043-2.94-0.043c-0.983,0-1.963,0.016-2.94,0.043c-0.377,0.01-0.752,0.028-1.127,0.043    c-0.588,0.023-1.174,0.047-1.758,0.078c-0.481,0.026-0.962,0.059-1.442,0.092c-0.458,0.032-0.915,0.065-1.371,0.102    c-0.558,0.045-1.115,0.094-1.671,0.149c-0.34,0.033-0.679,0.07-1.019,0.107c-0.65,0.069-1.299,0.142-1.946,0.223    c-0.12,0.015-0.24,0.033-0.361,0.049c-3.816,0.495-7.593,1.188-11.319,2.097V22.685z M251.42,94.114    c0.124-0.007,0.246-0.022,0.37-0.027c1.395-0.07,2.798-0.107,4.21-0.107c1.412,0,2.815,0.036,4.21,0.107    c0.124,0.006,0.246,0.02,0.37,0.027c43.252,2.385,77.708,38.318,77.708,82.154c0,36.128-23.413,66.871-55.857,77.909    c-0.814,0.274-1.625,0.556-2.45,0.805c-0.349,0.107-0.706,0.198-1.058,0.302c-1.157,0.332-2.32,0.652-3.496,0.936    c-0.194,0.048-0.39,0.09-0.584,0.135c-1.348,0.314-2.705,0.601-4.077,0.85c-4.794,0.873-9.725,1.353-14.768,1.353    c-5.043,0-9.972-0.481-14.768-1.353c-1.371-0.248-2.729-0.534-4.076-0.85c-0.194-0.045-0.39-0.089-0.584-0.135    c-1.176-0.284-2.339-0.603-3.496-0.936c-0.352-0.102-0.708-0.194-1.058-0.302c-0.825-0.25-1.636-0.532-2.45-0.805    c-32.443-11.037-55.857-41.78-55.857-77.909C173.711,132.432,208.168,96.499,251.42,94.114z M114.193,466.069L70.49,484.482    l-6.614-46.959L174.518,242.5c3.875,4.781,8.139,9.185,12.74,13.174L103.92,402.571c-3.091,5.449-1.181,12.371,4.268,15.462    c1.768,1.003,3.69,1.479,5.586,1.479c3.95,0,7.788-2.067,9.876-5.747L206,268.614c5.168,2.789,10.584,5.16,16.211,7.057    L114.193,466.069z M216.488,331.733l28.946-51.02c3.475,0.349,7.001,0.53,10.566,0.53c3.565,0,7.09-0.18,10.566-0.53l28.946,51.02    H216.488z M441.51,484.482l-43.703-18.412L289.789,275.673c5.627-1.899,11.043-4.268,16.211-7.057l82.349,145.151    c2.088,3.682,5.925,5.747,9.876,5.747c1.896,0,3.819-0.476,5.586-1.479c5.449-3.091,7.359-10.014,4.268-15.462l-83.34-146.896    c4.602-3.99,8.866-8.393,12.741-13.174l110.642,195.022L441.51,484.482z"/>
	</g>
</g>
<g>
	<g>
		<path fill="#006cb5" d="M256,115.6c-33.453,0-60.668,27.215-60.668,60.668s27.215,60.668,60.668,60.668s60.668-27.215,60.668-60.668    S289.453,115.6,256,115.6z M256,214.251c-20.944,0-37.983-17.039-37.983-37.983s17.039-37.983,37.983-37.983    s37.983,17.039,37.983,37.983S276.944,214.251,256,214.251z"/>
	</g>
</g>
<g>
	<g>
		<path fill="#006cb5" d="M426.309,435.87c-0.147-0.726-0.363-1.44-0.647-2.121c-0.284-0.681-0.635-1.338-1.044-1.962    c-0.408-0.613-0.885-1.191-1.406-1.713c-0.522-0.533-1.112-0.998-1.724-1.418c-0.624-0.408-1.282-0.76-1.962-1.044    s-1.395-0.499-2.121-0.647c-1.463-0.295-2.972-0.295-4.435,0c-0.726,0.147-1.44,0.363-2.121,0.647    c-0.681,0.284-1.338,0.635-1.951,1.044c-0.624,0.421-1.202,0.886-1.724,1.418c-0.533,0.522-0.998,1.1-1.418,1.713    c-0.408,0.624-0.76,1.282-1.044,1.962c-0.284,0.681-0.499,1.395-0.647,2.121c-0.147,0.737-0.216,1.475-0.216,2.223    c0,0.737,0.068,1.475,0.216,2.212c0.147,0.726,0.363,1.441,0.647,2.121s0.635,1.338,1.044,1.962    c0.42,0.612,0.885,1.191,1.418,1.724c0.522,0.522,1.1,0.987,1.724,1.406c0.612,0.408,1.27,0.76,1.951,1.044    c0.681,0.284,1.395,0.499,2.121,0.647c0.737,0.147,1.475,0.216,2.223,0.216c0.737,0,1.486-0.068,2.212-0.216    c0.726-0.147,1.44-0.363,2.121-0.647s1.338-0.635,1.962-1.044c0.612-0.42,1.202-0.885,1.724-1.406    c0.522-0.533,0.998-1.112,1.406-1.724c0.408-0.624,0.76-1.282,1.044-1.962s0.499-1.395,0.647-2.121    c0.147-0.737,0.227-1.474,0.227-2.212C426.536,437.344,426.457,436.607,426.309,435.87z"/>
	</g>
</g>
<g>
	<g>
		<path fill="#006cb5" d="M107.933,435.871c-0.146-0.726-0.363-1.44-0.646-2.121c-0.284-0.681-0.635-1.338-1.044-1.962    c-0.42-0.613-0.885-1.191-1.418-1.713c-0.522-0.533-1.1-0.998-1.724-1.418c-0.612-0.408-1.27-0.76-1.951-1.044    c-0.692-0.284-1.395-0.499-2.121-0.647c-1.463-0.295-2.972-0.295-4.435,0c-0.726,0.147-1.44,0.363-2.121,0.647    c-0.681,0.284-1.35,0.635-1.962,1.044c-0.624,0.42-1.202,0.885-1.724,1.418c-0.522,0.522-0.998,1.1-1.406,1.713    c-0.408,0.624-0.76,1.282-1.043,1.962c-0.284,0.681-0.499,1.395-0.647,2.121c-0.147,0.737-0.227,1.475-0.227,2.223    c0,0.737,0.079,1.475,0.227,2.212c0.147,0.726,0.363,1.44,0.647,2.121c0.284,0.681,0.635,1.338,1.043,1.962    c0.408,0.612,0.885,1.191,1.406,1.724c0.522,0.522,1.1,0.987,1.724,1.406c0.613,0.408,1.282,0.76,1.962,1.044    s1.395,0.499,2.121,0.647c0.737,0.147,1.475,0.216,2.212,0.216c0.749,0,1.486-0.068,2.223-0.216    c0.726-0.147,1.429-0.363,2.121-0.647c0.681-0.284,1.338-0.635,1.951-1.044c0.624-0.42,1.202-0.885,1.724-1.406    c0.533-0.533,0.998-1.112,1.418-1.724c0.408-0.624,0.76-1.282,1.044-1.962s0.499-1.395,0.647-2.121    c0.147-0.737,0.216-1.475,0.216-2.212C108.148,437.345,108.08,436.608,107.933,435.871z"/>
	</g>
</g>
<g>
</g>
<g>
</g>
<g>
</g>
<g>
</g>
<g>
</g>
<g>
</g>
<g>
</g>
<g>
</g>
<g>
</g>
<g>
</g>
<g>
</g>
<g>
</g>
<g>
</g>
<g>
</g>
<g>
</g>
</svg>