<!-- Generated by IcoMoon.io -->
<svg version="1.1" xmlns="http://www.w3.org/2000/svg" width="42" height="45" viewBox="0 0 32 32">
<title>tube</title>
<path fill="#006cb5" d="M25.635 0h-19.271c-1.551 0-2.813 1.262-2.813 2.813v7.168c0 0.518 0.42 0.938 0.938 0.938h0.743v20.145c0 0.518 0.42 0.938 0.938 0.938h19.66c0.518 0 0.938-0.42 0.938-0.938v-20.145h0.743c0.518 0 0.938-0.42 0.938-0.938v-7.168c-0-1.551-1.262-2.813-2.813-2.813zM24.893 12.706h-2.099c-0.518 0-0.938 0.42-0.938 0.938s0.42 0.938 0.938 0.938h2.099v2.711h-2.099c-0.518 0-0.938 0.42-0.938 0.938s0.42 0.938 0.938 0.938h2.099v2.711h-2.099c-0.518 0-0.938 0.42-0.938 0.938s0.42 0.938 0.938 0.938h2.099v2.711h-2.099c-0.518 0-0.938 0.42-0.938 0.938s0.42 0.938 0.938 0.938h2.099v1.787h-17.785v-19.207h17.785v1.788zM25.635 1.875c0.517 0 0.938 0.421 0.938 0.938v6.23h-21.146v-6.23c0-0.517 0.421-0.938 0.938-0.938z"/>
</svg>